<svg width="142" height="37" viewBox="0 0 142 37" fill="none" xmlns="http://www.w3.org/2000/svg">
<rect y="26.2695" width="5.254" height="5.254" fill="#F3642E"/>
<rect x="5.25439" y="31.5244" width="5.254" height="5.254" fill="#F3642E"/>
<rect x="10.5078" y="31.5244" width="5.254" height="5.254" fill="#F3642E"/>
<rect x="15.7622" y="31.5244" width="5.254" height="5.254" fill="#F3642E"/>
<rect x="21.0161" y="31.5244" width="5.254" height="5.254" fill="#F3642E"/>
<rect x="26.27" y="31.5244" width="5.254" height="5.254" fill="#F3642E"/>
<rect x="31.5244" y="31.5244" width="5.254" height="5.254" fill="#F3642E"/>
<rect x="36.7783" y="31.5244" width="5.254" height="5.254" fill="#F3642E"/>
<rect x="42.0322" y="31.5244" width="5.254" height="5.254" fill="#F3642E"/>
<rect x="47.2861" y="31.5244" width="5.254" height="5.254" fill="#F3642E"/>
<rect x="52.5405" y="31.5244" width="5.254" height="5.254" fill="#F3642E"/>
<rect x="57.7939" y="31.5244" width="5.254" height="5.254" fill="#F3642E"/>
<rect x="63.0483" y="31.5244" width="5.254" height="5.254" fill="#F3642E"/>
<rect x="68.3022" y="31.5244" width="5.254" height="5.254" fill="#F3642E"/>
<rect x="73.5566" y="31.5244" width="5.254" height="5.254" fill="#F3642E"/>
<rect x="78.8105" y="31.5244" width="5.254" height="5.254" fill="#F3642E"/>
<rect x="84.0645" y="31.5244" width="5.254" height="5.254" fill="#F3642E"/>
<rect x="89.3188" y="31.5244" width="5.254" height="5.254" fill="#F3642E"/>
<rect x="94.5723" y="31.5244" width="5.254" height="5.254" fill="#F3642E"/>
<rect x="99.8267" y="31.5244" width="5.254" height="5.254" fill="#F3642E"/>
<rect x="105.081" y="31.5244" width="5.254" height="5.254" fill="#F3642E"/>
<rect x="110.334" y="31.5244" width="5.254" height="5.254" fill="#F3642E"/>
<rect x="115.589" y="31.5244" width="5.254" height="5.254" fill="#F3642E"/>
<rect x="120.843" y="31.5244" width="5.254" height="5.254" fill="#F3642E"/>
<rect x="126.096" y="31.5244" width="5.254" height="5.254" fill="#F3642E"/>
<rect x="131.351" y="31.5244" width="5.254" height="5.254" fill="#F3642E"/>
<rect x="136.605" y="26.2695" width="5.254" height="5.254" fill="#F3642E"/>
<rect x="136.605" y="21.0156" width="5.254" height="5.254" fill="#F3642E"/>
<rect x="136.605" y="15.7627" width="5.254" height="5.254" fill="#F3642E"/>
<rect x="136.605" y="10.5088" width="5.254" height="5.254" fill="#F3642E"/>
<rect x="136.605" y="5.25488" width="5.254" height="5.254" fill="#F3642E"/>
<rect x="5.25439" width="5.254" height="5.254" fill="#F3642E"/>
<rect x="10.5078" width="5.254" height="5.254" fill="#F3642E"/>
<rect x="10.5078" y="10.5088" width="5.254" height="5.254" fill="#F3642E"/>
<rect x="26.27" y="10.5088" width="5.254" height="5.254" fill="#F3642E"/>
<rect x="42.0322" y="10.5088" width="5.254" height="5.254" fill="#F3642E"/>
<rect x="57.7939" y="10.5088" width="5.254" height="5.254" fill="#F3642E"/>
<rect x="73.5566" y="10.5088" width="5.254" height="5.254" fill="#F3642E"/>
<rect x="10.5078" y="15.7627" width="5.254" height="5.254" fill="#F3642E"/>
<rect x="26.27" y="15.7627" width="5.254" height="5.254" fill="#F3642E"/>
<rect x="42.0322" y="15.7627" width="5.254" height="5.254" fill="#F3642E"/>
<rect x="57.7939" y="15.7627" width="5.254" height="5.254" fill="#F3642E"/>
<rect x="73.5566" y="15.7627" width="5.254" height="5.254" fill="#F3642E"/>
<rect x="10.5078" y="21.0156" width="5.254" height="5.254" fill="#F3642E"/>
<rect x="26.27" y="21.0156" width="5.254" height="5.254" fill="#F3642E"/>
<rect x="42.0322" y="21.0156" width="5.254" height="5.254" fill="#F3642E"/>
<rect x="57.7939" y="21.0156" width="5.254" height="5.254" fill="#F3642E"/>
<rect x="73.5566" y="21.0156" width="5.254" height="5.254" fill="#F3642E"/>
<rect x="15.7622" y="21.0156" width="5.254" height="5.254" fill="#F3642E"/>
<rect x="31.5244" y="21.0156" width="5.254" height="5.254" fill="#F3642E"/>
<rect x="47.2861" y="21.0156" width="5.254" height="5.254" fill="#F3642E"/>
<rect x="63.0483" y="21.0156" width="5.254" height="5.254" fill="#F3642E"/>
<rect x="78.8105" y="21.0156" width="5.254" height="5.254" fill="#F3642E"/>
<rect x="15.7622" y="15.7627" width="5.254" height="5.254" fill="#F3642E"/>
<rect x="31.5244" y="15.7627" width="5.254" height="5.254" fill="#F3642E"/>
<rect x="47.2861" y="15.7627" width="5.254" height="5.254" fill="#F3642E"/>
<rect x="63.0483" y="15.7627" width="5.254" height="5.254" fill="#F3642E"/>
<rect x="78.8105" y="15.7627" width="5.254" height="5.254" fill="#F3642E"/>
<rect x="15.7622" y="10.5088" width="5.254" height="5.254" fill="#F3642E"/>
<rect x="31.5244" y="10.5088" width="5.254" height="5.254" fill="#F3642E"/>
<rect x="47.2861" y="10.5088" width="5.254" height="5.254" fill="#F3642E"/>
<rect x="63.0483" y="10.5088" width="5.254" height="5.254" fill="#F3642E"/>
<rect x="78.8105" y="10.5088" width="5.254" height="5.254" fill="#F3642E"/>
<rect x="15.7622" width="5.254" height="5.254" fill="#F3642E"/>
<rect x="21.0161" width="5.254" height="5.254" fill="#F3642E"/>
<rect x="26.27" width="5.254" height="5.254" fill="#F3642E"/>
<rect x="31.5244" width="5.254" height="5.254" fill="#F3642E"/>
<rect x="36.7783" width="5.254" height="5.254" fill="#F3642E"/>
<rect x="42.0322" width="5.254" height="5.254" fill="#F3642E"/>
<rect x="47.2861" width="5.254" height="5.254" fill="#F3642E"/>
<rect x="52.5405" width="5.254" height="5.254" fill="#F3642E"/>
<rect x="57.7939" width="5.254" height="5.254" fill="#F3642E"/>
<rect x="63.0483" width="5.254" height="5.254" fill="#F3642E"/>
<rect x="68.3022" width="5.254" height="5.254" fill="#F3642E"/>
<rect x="73.5566" width="5.254" height="5.254" fill="#F3642E"/>
<rect x="78.8105" width="5.254" height="5.254" fill="#F3642E"/>
<rect x="84.0645" width="5.254" height="5.254" fill="#F3642E"/>
<rect x="89.3188" width="5.254" height="5.254" fill="#F3642E"/>
<rect x="94.5723" width="5.254" height="5.254" fill="#F3642E"/>
<rect x="99.8267" width="5.254" height="5.254" fill="#F3642E"/>
<rect x="105.081" width="5.254" height="5.254" fill="#F3642E"/>
<rect x="110.334" width="5.254" height="5.254" fill="#F3642E"/>
<rect x="115.589" width="5.254" height="5.254" fill="#F3642E"/>
<rect x="120.843" width="5.254" height="5.254" fill="#F3642E"/>
<rect x="126.096" width="5.254" height="5.254" fill="#F3642E"/>
<rect x="131.351" width="5.254" height="5.254" fill="#F3642E"/>
<rect y="5.25488" width="5.254" height="5.254" fill="#F3642E"/>
<rect y="10.5088" width="5.254" height="5.254" fill="#F3642E"/>
<rect y="15.7627" width="5.254" height="5.254" fill="#F3642E"/>
<rect y="21.0156" width="5.254" height="5.254" fill="#F3642E"/>
</svg>
