<svg width="24" height="25" viewBox="0 0 24 25" fill="none" xmlns="http://www.w3.org/2000/svg">
<path d="M11.5342 21.3948C11.1717 21.3948 10.8092 21.4107 10.4467 21.4107C9.72771 21.4107 9.00871 21.4107 8.25584 21.4107V23.0479H6.61069V24.6971H4.93964V14.8361H1.65332V13.1611H8.24389V11.508H9.89103V9.86679H11.5322V8.22363H14.8305V11.5279H13.1754V14.8142H11.5222V16.4713H9.89502V19.7556H11.5262V21.3988L11.5342 21.3948Z" fill="#F3642E"/>
<path d="M18.1248 3.2923V1.63121H21.3912V0H23.0603V3.29827H21.4371V6.58858H19.7879V13.1612H18.1448V18.1046H16.5016V23.0341H14.8186V16.4475H16.4697V11.5141H18.1248V4.93147H19.76V3.28632H18.1268L18.1248 3.2923Z" fill="#F3642E"/>
<path d="M1.65291 11.5241V9.86499H4.91931V8.24175C4.97363 8.22825 5.02889 8.21893 5.08463 8.21387C6.1004 8.21387 7.11617 8.21387 8.13194 8.21387C8.16817 8.21624 8.20414 8.22157 8.2395 8.2298V9.88491H6.57243V11.5221H1.64893L1.65291 11.5241Z" fill="#F3642E"/>
<path d="M14.8241 4.93749V3.29234C14.8661 3.28358 14.9087 3.27759 14.9515 3.27441H17.9869C18.0304 3.27731 18.0737 3.2833 18.1163 3.29234C18.1163 3.84205 18.1163 4.39376 18.1163 4.94347H14.8201L14.8241 4.93749Z" fill="#F3642E"/>
<path d="M11.5321 6.58495V4.93781C11.5735 4.92956 11.6154 4.92424 11.6576 4.92188H14.6949C14.7384 4.92424 14.7817 4.92956 14.8244 4.93781C14.8244 5.49018 14.8244 6.04055 14.8244 6.58894L11.5261 6.573L11.5321 6.58495Z" fill="#F3642E"/>
<path d="M8.23937 8.23034V6.58519C8.28087 6.5783 8.3228 6.57431 8.36485 6.57324H11.4002C11.4444 6.57629 11.4883 6.58228 11.5317 6.59117V8.2423H8.2334L8.23937 8.23034Z" fill="#F3642E"/>
<path d="M1.65312 13.1606H0V11.5234H1.65312V13.1726V13.1606Z" fill="#F3642E"/>
<path d="M13.1791 23.0417H11.5339V21.3945H13.1811V23.0417H13.1791Z" fill="#F3642E"/>
<path d="M14.8186 23.042V24.6971H13.1794V23.048H14.8306L14.8186 23.042Z" fill="#F3642E"/>
<path d="M14.8186 8.23034V6.57324H16.4518V8.22636L14.8186 8.23034Z" fill="#F3642E"/>
</svg>
