<svg width="25" height="25" viewBox="0 0 25 25" fill="none" xmlns="http://www.w3.org/2000/svg">
<path d="M4.688 25H0V21.876H1.568V20.308H3.134V18.742H4.692V17.176H7.82V15.62H9.356V12.49H7.8V10.924H6.24V7.8H4.682V6.246H3.126V0H9.376V1.566H4.706V4.694H6.254V6.26H7.818V9.378H9.384V10.942H10.94V12.508H12.506V14.064H14.07V17.2H15.634V20.318H17.184V23.44H15.612V21.872H14.056V18.77H10.926V20.32H7.8V23.44H4.688V25Z" fill="#F3642E"/>
<path d="M23.4379 0H24.9999V6.25H23.4239V7.822H21.8679V9.386H20.3039V10.942H18.7679V12.506H20.3159V14.07H21.8719V17.2H20.2999V15.632H18.7419V14.05H17.1759V10.93H15.6199V9.372H14.0539V7.8H12.4959V6.24H10.9299V4.682H9.37793V1.56H10.9559V3.128H12.5119V4.7H14.0779V6.258H15.6439V7.8H18.7639V4.674H20.3299V3.116H21.8859V1.56H23.4439L23.4379 0Z" fill="#F3642E"/>
<path d="M21.8722 17.2006H23.4282V18.7606H25.0002V25.0006H17.1882V23.4346H23.4262V20.3046H21.8822V17.1846L21.8722 17.2006Z" fill="#F3642E"/>
</svg>
